<svg width="304" height="31" viewBox="0 0 304 31" fill="none" xmlns="http://www.w3.org/2000/svg">
<path d="M2 13.5C0.89543 13.5 0 14.3954 0 15.5C0 16.6046 0.89543 17.5 2 17.5V13.5ZM302.914 16.9142C303.695 16.1332 303.695 14.8668 302.914 14.0858L290.186 1.35786C289.405 0.576816 288.139 0.576816 287.358 1.35786C286.577 2.13891 286.577 3.40524 287.358 4.18629L298.672 15.5L287.358 26.8137C286.577 27.5948 286.577 28.8611 287.358 29.6421C288.139 30.4232 289.405 30.4232 290.186 29.6421L302.914 16.9142ZM2 17.5H301.5V13.5H2V17.5Z" fill="black"/>
</svg>
