<svg width="394" height="393" viewBox="0 0 394 393" fill="none" xmlns="http://www.w3.org/2000/svg">
<path d="M322.722 226.082C328.349 179.638 301.094 119.656 272.841 95.7438C221.83 52.5804 179.451 63.5675 146.49 81.6176C113.529 99.6678 108.82 154.603 86.0615 180.501C63.3026 206.399 35.835 246.423 70.3657 277.815C104.896 309.206 147.275 284.878 183.375 280.954C219.476 277.03 267.348 291.156 293.246 275.46C311.327 264.473 320.211 246.612 322.722 226.082Z" fill="#E6E6E6"/>
<path d="M161.01 325.688C198.068 325.688 228.109 319.89 228.109 312.739C228.109 305.587 198.068 299.79 161.01 299.79C123.952 299.79 93.9102 305.587 93.9102 312.739C93.9102 319.89 123.952 325.688 161.01 325.688Z" fill="#C6C6C6"/>
<path opacity="0.5" d="M161.01 325.688C198.068 325.688 228.109 319.89 228.109 312.739C228.109 305.587 198.068 299.79 161.01 299.79C123.952 299.79 93.9102 305.587 93.9102 312.739C93.9102 319.89 123.952 325.688 161.01 325.688Z" fill="white"/>
<path d="M108.358 212.819V226.419C108.358 226.419 110.532 247.161 114.048 267.095L94.7578 307.511L99.1997 307.778C99.1997 307.778 128.943 271.019 129.987 267.095C131.031 263.171 129.289 233.482 129.289 233.482L159.628 251.791L172.711 297.835L177.161 296.006C177.161 296.006 172.625 246.698 171.667 245.513C157.109 227.565 136.611 215.691 136.611 215.691L132.428 208.11L108.358 212.819Z" fill="#333333" stroke="#263238" stroke-width="0.921114" stroke-linecap="round" stroke-linejoin="round"/>
<path d="M129.807 234.158L131.714 224.112" stroke="white" stroke-width="0.460557" stroke-linecap="round" stroke-linejoin="round"/>
<path d="M130.325 232.078L134.83 222.032" stroke="white" stroke-width="0.460557" stroke-linecap="round" stroke-linejoin="round"/>
<path d="M144.898 169.444C144.898 169.444 143.839 175.236 145.369 176.562C146.9 177.888 152.338 178.736 152.958 176.099C153.578 173.462 148.461 147.297 147.841 144.66C147.221 142.023 145.369 143.577 144.749 144.354C144.129 145.131 144.898 169.444 144.898 169.444Z" fill="white" stroke="#263238" stroke-width="0.921114" stroke-linecap="round" stroke-linejoin="round"/>
<path d="M117.878 159.846C117.878 159.846 100.864 166.705 95.6056 169.043C90.3475 171.382 93.1414 176.632 93.9262 178.461C94.711 180.289 107.33 212.991 107.644 213.58C107.958 214.169 109.999 215.589 112.918 215.581C115.837 215.573 132.883 211.351 133.495 209.303C134.107 207.255 133.017 204.037 133.017 204.037L124.117 176.805C124.117 176.805 145.809 177.982 146.876 177.825C147.943 177.668 150.737 174.254 147.472 171.013C144.208 167.772 123.756 162.247 122.673 161.321C121.59 160.395 119.738 159.218 117.878 159.846Z" fill="white" stroke="#263238" stroke-width="0.921114" stroke-linecap="round" stroke-linejoin="round"/>
<path d="M108.445 170.597L112.934 174.639L118.325 204.735L124.164 208.777L125.286 200.019L114.299 173.964V169.255C114.299 168.133 114.747 165.433 111.827 164.091C108.908 162.749 104.85 164.758 108.445 170.597Z" fill="#263238"/>
<path d="M144.419 166.03C144.419 166.03 141.633 166.03 140.707 171.767C139.781 177.504 141.17 178.579 142.716 178.885C144.262 179.191 147.825 180.454 149.685 178.579C151.545 176.703 151.702 172.536 150.619 169.287C150.43 168.664 150.118 168.084 149.703 167.582C149.287 167.08 148.777 166.666 148.2 166.363C147.623 166.06 146.992 165.874 146.343 165.817C145.694 165.76 145.04 165.832 144.419 166.03Z" fill="white" stroke="#263238" stroke-width="0.921114" stroke-linecap="round" stroke-linejoin="round"/>
<path d="M111.756 159.995L118.725 168.667L113.93 166.03L112.219 170.527L111.756 159.995Z" fill="white" stroke="#263238" stroke-width="0.921114" stroke-linecap="round" stroke-linejoin="round"/>
<path d="M112.997 155.349L112.071 171.146L105.408 164.021L103.862 154.266L112.997 155.349Z" fill="white" stroke="#263238" stroke-width="0.921114" stroke-linecap="round" stroke-linejoin="round"/>
<path d="M102.927 159.838L110.916 167.223L108.892 173.737L101.538 165.261L102.927 159.838Z" fill="white" stroke="#263238" stroke-width="0.921114" stroke-linecap="round" stroke-linejoin="round"/>
<path d="M174.627 208.652C163.913 208.69 153.433 205.52 144.538 199.548C138.974 195.886 134.234 191.105 130.619 185.51C127.005 179.915 124.596 173.628 123.545 167.05C119.307 140.046 139.115 114.43 167.76 109.871L194.246 104.793L197.001 124.483L171.276 129.106L170.993 129.161C152.943 131.978 140.386 147.611 142.96 164.021C145.534 180.431 162.235 191.418 180.206 188.687L207.203 183.547L210.876 202.742L183.66 207.914L183.346 207.969C180.461 208.421 177.546 208.649 174.627 208.652Z" fill="#263238" stroke="#263238" stroke-width="0.921114" stroke-linecap="round" stroke-linejoin="round"/>
<path d="M174.022 206.541C163.308 206.579 152.828 203.408 143.933 197.437C138.369 193.775 133.629 188.994 130.014 183.398C126.4 177.803 123.991 171.517 122.94 164.939C118.686 137.934 138.51 112.311 167.155 107.759L193.641 102.682L196.357 122.372L170.631 126.994C170.539 127.018 170.444 127.033 170.349 127.041C152.299 129.859 139.742 145.5 142.324 161.91C144.906 178.32 161.591 189.307 179.57 186.576L206.63 181.435L210.342 200.631L183.11 205.803L182.796 205.858C179.893 206.312 176.96 206.541 174.022 206.541Z" fill="#6ED160" stroke="#263238" stroke-width="0.921114" stroke-linecap="round" stroke-linejoin="round"/>
<path d="M169.878 204.045C161.068 203.379 152.582 200.437 145.251 195.506C140.285 192.183 135.991 187.952 132.593 183.036" fill="#3ABC29"/>
<path d="M169.878 204.045C161.068 203.379 152.582 200.437 145.251 195.506C140.285 192.183 135.991 187.952 132.593 183.036" stroke="#263238" stroke-width="0.921114" stroke-linecap="round" stroke-linejoin="round"/>
<path d="M176.47 204.124C175.685 204.124 174.838 204.186 174.021 204.186L176.47 204.124Z" fill="#92E3A9"/>
<path d="M176.47 204.124C175.685 204.124 174.838 204.186 174.021 204.186" stroke="#263238" stroke-width="0.921114" stroke-linecap="round" stroke-linejoin="round"/>
<path d="M157.917 128.745C153.136 131.265 148.988 134.837 145.784 139.19C143.34 142.463 141.569 146.188 140.575 150.15C139.58 154.112 139.383 158.232 139.992 162.271C141.562 172.081 147.715 180.203 156.355 184.912" stroke="#263238" stroke-width="0.921114" stroke-linecap="round" stroke-linejoin="round"/>
<path d="M131.149 134.434C135.051 127.954 140.334 122.414 146.621 118.209C152.908 114.004 160.046 111.237 167.524 110.106L191.649 105.483L193.713 120.473L169.981 124.734C167.866 125.07 165.782 125.577 163.75 126.249" stroke="#263238" stroke-width="0.921114" stroke-linecap="round" stroke-linejoin="round"/>
<path d="M128.111 140.547C128.582 139.402 129.105 138.277 129.681 137.173" stroke="#263238" stroke-width="0.921114" stroke-linecap="round" stroke-linejoin="round"/>
<path d="M175.983 126.037L196.357 122.372L193.641 102.682L172.946 106.653L175.983 126.037Z" fill="white" stroke="#263238" stroke-width="0.921114" stroke-linecap="round" stroke-linejoin="round"/>
<path d="M210.302 200.631L206.629 181.435L185.283 185.485L188.305 204.806L210.302 200.631Z" fill="white" stroke="#263238" stroke-width="0.921114" stroke-linecap="round" stroke-linejoin="round"/>
<path d="M113.711 199.603C113.711 199.603 142.316 201.251 143.729 201.015C145.141 200.78 149.568 196.048 150.682 195.522C151.796 194.996 154.041 196.628 155.391 197.162C156.741 197.696 157.879 196.982 157.981 198.072C158.083 199.163 157.282 199.587 155.736 199.509C154.19 199.43 153.264 199.218 152.495 199.179C151.726 199.14 154.112 200.819 156.183 202.789C158.255 204.759 159.919 205.465 159.409 206.368C158.899 207.27 157.667 207.05 156.921 206.368C156.176 205.685 154.017 205.583 152.314 205.504C150.611 205.426 147.739 204.029 147.739 204.029C143.763 204.966 139.739 205.687 135.685 206.187C126.934 207.435 114.59 209.271 111.191 208.934C107.793 208.597 105.557 203.99 105.557 203.99L113.711 199.603Z" fill="white" stroke="#263238" stroke-width="0.921114" stroke-linecap="round" stroke-linejoin="round"/>
<path d="M95.6056 169.043C95.6056 169.043 91.0067 170.832 89.7668 173.469C88.5268 176.106 89.9237 180.438 91.7758 183.844C93.6279 187.25 104.945 205.033 104.945 205.033L111.757 198.841C111.757 198.841 105.565 179.332 104.788 177.652" fill="white"/>
<path d="M95.6056 169.043C95.6056 169.043 91.0067 170.832 89.7668 173.469C88.5268 176.106 89.9237 180.438 91.7758 183.844C93.6279 187.25 104.945 205.033 104.945 205.033L111.757 198.841C111.757 198.841 105.565 179.332 104.788 177.652" stroke="#263238" stroke-width="0.921114" stroke-linecap="round" stroke-linejoin="round"/>
<path d="M97.332 175.479C98.2297 175.413 99.1314 175.53 99.9826 175.823C100.834 176.115 101.617 176.578 102.284 177.182" stroke="#263238" stroke-width="0.921114" stroke-linecap="round" stroke-linejoin="round"/>
<path d="M104.011 174.089C104.011 174.089 106.365 174.552 107.15 179.661" stroke="#263238" stroke-width="0.921114" stroke-linecap="round" stroke-linejoin="round"/>
<path d="M110.211 193.756C110.211 193.756 105.408 195.922 102.779 198.865C100.15 201.808 100.425 202.734 102.159 204.594C103.893 206.454 104.945 207.38 106.028 206.611C107.111 205.842 114.394 201.031 114.857 199.791C115.32 198.551 113.774 193.913 112.691 193.442C111.855 193.217 110.964 193.33 110.211 193.756Z" fill="white" stroke="#263238" stroke-width="0.921114" stroke-linecap="round" stroke-linejoin="round"/>
<path d="M147.841 144.66C147.841 144.66 152.644 140.171 153.264 137.997C153.884 135.823 152.479 132.425 152.024 132.268C151.569 132.111 151.098 133.053 151.098 134.285C151.098 134.285 149.701 132.582 149.528 133.822C149.44 134.541 149.39 135.264 149.379 135.988C149.379 135.988 147.982 134.418 147.676 135.525C147.601 135.862 147.618 136.213 147.728 136.541C147.837 136.869 148.034 137.161 148.296 137.385C148.296 137.385 146.279 135.815 146.279 136.914C146.349 137.672 146.676 138.384 147.205 138.931C147.205 138.931 144.576 142.494 144.733 144.354C144.718 144.824 144.888 145.281 145.207 145.628C145.525 145.974 145.967 146.182 146.436 146.206" fill="white"/>
<path d="M147.841 144.66C147.841 144.66 152.644 140.171 153.264 137.997C153.884 135.823 152.479 132.425 152.024 132.268C151.569 132.111 151.098 133.053 151.098 134.285C151.098 134.285 149.701 132.582 149.528 133.822C149.44 134.541 149.39 135.264 149.379 135.988C149.379 135.988 147.982 134.418 147.676 135.525C147.601 135.862 147.618 136.213 147.728 136.541C147.837 136.869 148.034 137.161 148.296 137.385C148.296 137.385 146.279 135.815 146.279 136.914C146.349 137.672 146.676 138.384 147.205 138.931C147.205 138.931 144.576 142.494 144.733 144.354C144.718 144.824 144.888 145.281 145.207 145.628C145.525 145.974 145.967 146.182 146.436 146.206" stroke="#263238" stroke-width="0.921114" stroke-linecap="round" stroke-linejoin="round"/>
<path d="M148.344 137.385C148.344 137.385 149.427 138.468 149.27 139.394" stroke="#263238" stroke-width="0.921114" stroke-linecap="round" stroke-linejoin="round"/>
<path d="M149.395 135.988C149.395 135.988 150.634 137.691 150.634 138.774" stroke="#263238" stroke-width="0.921114" stroke-linecap="round" stroke-linejoin="round"/>
<path d="M151.098 134.285C151.789 135.241 152.216 136.361 152.338 137.534" stroke="#263238" stroke-width="0.921114" stroke-linecap="round" stroke-linejoin="round"/>
<path d="M99.1999 307.779C99.1999 307.779 105.478 313.79 107.315 315.626C109.151 317.463 111.497 318.499 109.669 318.499C107.84 318.499 103.909 319.025 100.251 317.981C96.5944 316.937 93.7063 313.79 92.4036 312.22C91.1008 310.651 94.758 307.512 94.758 307.512L99.1999 307.779Z" fill="white" stroke="#263238" stroke-width="0.921114" stroke-linecap="round" stroke-linejoin="round"/>
<path d="M108.963 317.055C105.642 317.48 102.27 317.212 99.0585 316.27C96.61 315.485 93.6906 311.561 92.584 309.992C92.121 310.776 91.9091 311.561 92.4035 312.181C93.7063 313.751 96.5865 316.89 100.251 317.942C103.916 318.993 107.832 318.46 109.669 318.46C110.956 318.499 110.171 317.981 108.963 317.055Z" fill="white" stroke="#263238" stroke-width="0.921114" stroke-linecap="round" stroke-linejoin="round"/>
<path d="M177.161 296.007C177.161 296.007 191.287 302.018 192.331 302.285C193.375 302.552 193.587 304.216 188.713 304.216C186.618 304.216 178.723 304.734 176.894 304.734C175.066 304.734 172.97 304.899 172.452 303.855C171.935 302.811 172.711 297.835 172.711 297.835L177.161 296.007Z" fill="white" stroke="#263238" stroke-width="0.921114" stroke-linecap="round" stroke-linejoin="round"/>
<path d="M192.331 302.285H192.291C186.217 303.18 175.293 303.031 172.287 302.968C172.284 303.276 172.34 303.583 172.452 303.87C172.97 304.914 175.058 304.749 176.894 304.749C178.73 304.749 186.617 304.231 188.713 304.231C193.586 304.216 193.374 302.544 192.331 302.285Z" fill="white" stroke="#263238" stroke-width="0.921114" stroke-linecap="round" stroke-linejoin="round"/>
<path d="M110.916 167.223L112.07 171.147L109.794 170.37L110.916 167.223Z" fill="white" stroke="#263238" stroke-width="0.921114" stroke-linecap="round" stroke-linejoin="round"/>
<path d="M112.69 133.665C112.69 133.665 111.756 130.879 107.887 130.565C104.018 130.252 97.0416 135.831 96.4216 139.708C95.8017 143.585 101.538 153.952 103.241 155.498C104.944 157.044 119.345 156.589 119.808 154.572C120.271 152.555 115.782 139.551 112.69 133.665Z" fill="white" stroke="#263238" stroke-width="0.921114" stroke-linecap="round" stroke-linejoin="round"/>
<path d="M112.377 143.114C112.377 143.114 113.947 145.123 114.857 145.28C115.767 145.437 117.211 145.123 116.426 146.065C115.642 147.006 113.02 147.634 113.02 147.634" stroke="#263238" stroke-width="0.921114" stroke-linecap="round" stroke-linejoin="round"/>
<path d="M113.028 150.232C113.028 150.232 109.622 151.017 108.076 148.529" stroke="#263238" stroke-width="0.921114" stroke-linecap="round" stroke-linejoin="round"/>
<path d="M108.665 147.909L107.268 149.149" stroke="#263238" stroke-width="0.921114" stroke-linecap="round" stroke-linejoin="round"/>
<path d="M108.045 144.66C108.633 144.199 109.321 143.882 110.054 143.734" stroke="#263238" stroke-width="0.921114" stroke-linecap="round" stroke-linejoin="round"/>
<path d="M105.722 142.18C105.722 142.18 106.648 140.791 109.591 141.395" stroke="#263238" stroke-width="0.921114" stroke-linecap="round" stroke-linejoin="round"/>
<path d="M110.673 139.693C110.673 139.693 110.516 137.338 112.69 137.519" stroke="#263238" stroke-width="0.921114" stroke-linecap="round" stroke-linejoin="round"/>
<path d="M114.503 141.834C114.754 142.384 114.762 142.91 114.503 143.019C114.244 143.129 113.883 142.76 113.632 142.235C113.381 141.709 113.381 141.16 113.632 141.058C113.883 140.955 114.26 141.262 114.503 141.834Z" fill="#263238"/>
<path d="M100.299 148.843C100.299 148.843 102.653 148.223 102.653 146.983C102.653 145.743 101.719 145.413 102.033 144.503C102.347 143.593 104.513 142.337 103.893 140.94C103.273 139.543 100.173 139.551 100.487 138.468C100.801 137.385 111.168 134.748 111.945 131.499C112.722 128.25 109.308 124.216 106.679 124.373C104.05 124.53 105.439 127.779 105.439 127.779C105.439 127.779 97.6934 125.425 96.1473 128.399C94.6013 131.373 97.5442 132.739 97.5442 132.739C97.5442 132.739 92.1214 135.211 91.6583 138.931C91.1953 142.651 97.6934 149.769 99.0903 150.232C100.487 150.695 100.299 148.843 100.299 148.843Z" fill="#263238" stroke="#263238" stroke-width="0.921114" stroke-linecap="round" stroke-linejoin="round"/>
<path d="M99.6869 138.75C99.6869 138.75 95.2449 141.819 94.6328 144.244" stroke="white" stroke-width="0.460557" stroke-linecap="round" stroke-linejoin="round"/>
<path d="M103.093 140.281C103.093 140.281 97.5995 142.737 95.8887 146.261" stroke="white" stroke-width="0.460557" stroke-linecap="round" stroke-linejoin="round"/>
<path d="M101.538 149.769C101.538 149.769 100.604 147.603 98.9011 147.76C97.1981 147.917 97.6611 150.389 99.3641 152.406C101.067 154.423 103.084 153.026 103.241 152.563" fill="white"/>
<path d="M101.538 149.769C101.538 149.769 100.604 147.603 98.9011 147.76C97.1981 147.917 97.6611 150.389 99.3641 152.406C101.067 154.423 103.084 153.026 103.241 152.563" stroke="#263238" stroke-width="0.921114" stroke-linecap="round" stroke-linejoin="round"/>
<path d="M259.296 141.569H238.153V155.467H259.296V141.569Z" fill="#6ED160" stroke="#263238" stroke-width="0.921114" stroke-linecap="round" stroke-linejoin="round"/>
<path d="M238.153 141.569L248.724 148.514L259.296 141.569" stroke="#263238" stroke-width="0.921114" stroke-linecap="round" stroke-linejoin="round"/>
<path d="M304.147 113.789L283.665 108.546L280.218 122.01L300.7 127.254L304.147 113.789Z" fill="white" stroke="#263238" stroke-width="0.921114" stroke-linecap="round" stroke-linejoin="round"/>
<path d="M283.655 108.56L292.17 117.915L304.138 113.802" stroke="#263238" stroke-width="0.921114" stroke-linecap="round" stroke-linejoin="round"/>
<path d="M292.126 184.943L271.645 179.699L268.197 193.164L288.679 198.407L292.126 184.943Z" fill="white" stroke="#263238" stroke-width="0.921114" stroke-linecap="round" stroke-linejoin="round"/>
<path d="M271.617 179.717L280.14 189.071L292.1 184.959" stroke="#263238" stroke-width="0.921114" stroke-linecap="round" stroke-linejoin="round"/>
<path d="M314.641 137.393L294.159 132.149L290.712 145.614L311.194 150.857L314.641 137.393Z" fill="white" stroke="#263238" stroke-width="0.921114" stroke-linecap="round" stroke-linejoin="round"/>
<path d="M294.148 132.167L302.663 141.522L314.631 137.417" stroke="#263238" stroke-width="0.921114" stroke-linecap="round" stroke-linejoin="round"/>
<path d="M295.382 161.435L281.849 145.192L271.171 154.089L284.704 170.332L295.382 161.435Z" fill="white" stroke="#263238" stroke-width="0.921114" stroke-linecap="round" stroke-linejoin="round"/>
<path d="M281.851 145.186L283.279 157.758L295.388 161.431" stroke="#263238" stroke-width="0.921114" stroke-linecap="round" stroke-linejoin="round"/>
<path d="M322.061 111.204L308.527 94.9609L297.849 103.858L311.383 120.101L322.061 111.204Z" fill="#B0FAA6" stroke="#263238" stroke-width="0.921114" stroke-linecap="round" stroke-linejoin="round"/>
<path d="M308.533 94.9595L309.962 107.532L322.071 111.205" stroke="#263238" stroke-width="0.921114" stroke-linecap="round" stroke-linejoin="round"/>
<path d="M310.135 157.662L293.222 170.136L301.422 181.255L318.336 168.781L310.135 157.662Z" fill="#31CF1C" stroke="#263238" stroke-width="0.915617" stroke-linecap="round" stroke-linejoin="round"/>
<path d="M295.239 169.947L307.866 169.272L312.261 157.406" stroke="#263238" stroke-width="0.921114" stroke-linecap="round" stroke-linejoin="round"/>
<path d="M208.088 96.0269H186.946V109.925H208.088V96.0269Z" fill="white" stroke="#263238" stroke-width="0.921114" stroke-linecap="round" stroke-linejoin="round"/>
<path d="M186.946 96.0269L197.517 102.972L208.088 96.0269" stroke="#263238" stroke-width="0.921114" stroke-linecap="round" stroke-linejoin="round"/>
<path d="M228.49 106.743L213.18 92.1631L203.595 102.228L218.906 116.808L228.49 106.743Z" fill="#B6E6B0" stroke="#263238" stroke-width="0.921114" stroke-linecap="round" stroke-linejoin="round"/>
<path d="M213.166 92.166L216.03 104.487L228.477 106.747" stroke="#263238" stroke-width="0.921114" stroke-linecap="round" stroke-linejoin="round"/>
<path d="M283.678 86.3339L264.535 95.3091L270.435 107.893L289.578 98.918L283.678 86.3339Z" fill="white" stroke="#263238" stroke-width="0.921114" stroke-linecap="round" stroke-linejoin="round"/>
<path d="M264.539 95.3285L277.056 97.1335L283.68 86.3584" stroke="#263238" stroke-width="0.921114" stroke-linecap="round" stroke-linejoin="round"/>
<path d="M249.505 114.733L254.612 94.2168L241.125 90.8591L236.018 111.375L249.505 114.733Z" fill="white" stroke="#263238" stroke-width="0.921114" stroke-linecap="round" stroke-linejoin="round"/>
<path d="M254.618 94.2222L245.318 102.8L249.509 114.737" stroke="#263238" stroke-width="0.921114" stroke-linecap="round" stroke-linejoin="round"/>
<path d="M203.351 171.34L185.999 183.418L193.939 194.826L211.292 182.747L203.351 171.34Z" fill="white" stroke="#263238" stroke-width="0.921114" stroke-linecap="round" stroke-linejoin="round"/>
<path d="M186.005 183.406L198.648 183.068L203.357 171.328" stroke="#263238" stroke-width="0.921114" stroke-linecap="round" stroke-linejoin="round"/>
<path d="M229.017 174.151L211.681 186.202L219.603 197.599L236.939 185.547L229.017 174.151Z" fill="white" stroke="#263238" stroke-width="0.919869" stroke-linecap="round" stroke-linejoin="round"/>
<path d="M212.074 186.05L224.717 185.713L229.426 173.972" stroke="#263238" stroke-width="0.921114" stroke-linecap="round" stroke-linejoin="round"/>
<path d="M210.289 115.054L191.483 105.393L185.133 117.756L203.938 127.417L210.289 115.054Z" fill="white" stroke="#263238" stroke-width="0.921114" stroke-linecap="round" stroke-linejoin="round"/>
<path d="M191.49 105.39L197.721 116.4L210.294 115.05" stroke="#263238" stroke-width="0.921114" stroke-linecap="round" stroke-linejoin="round"/>
<path d="M218.612 195.528L199.806 185.868L193.455 198.23L212.261 207.891L218.612 195.528Z" fill="white" stroke="#263238" stroke-width="0.921114" stroke-linecap="round" stroke-linejoin="round"/>
<path d="M199.801 185.862L206.032 196.88L218.612 195.53" stroke="#263238" stroke-width="0.921114" stroke-linecap="round" stroke-linejoin="round"/>
</svg>
