<svg width="1421" height="1284" viewBox="0 0 1421 1284" fill="none" xmlns="http://www.w3.org/2000/svg">
<path d="M6 3C6 1.34315 4.65685 0 3 0C1.34315 0 0 1.34315 0 3H6ZM3 590.646H0V593.646H3V590.646ZM740.521 590.646H743.521V587.646H740.521V590.646ZM740.521 1261H737.521V1264H740.521V1261ZM1420.12 1263.12C1421.29 1261.95 1421.29 1260.05 1420.12 1258.88L1401.03 1239.79C1399.86 1238.62 1397.96 1238.62 1396.79 1239.79C1395.62 1240.96 1395.62 1242.86 1396.79 1244.03L1413.76 1261L1396.79 1277.97C1395.62 1279.14 1395.62 1281.04 1396.79 1282.21C1397.96 1283.38 1399.86 1283.38 1401.03 1282.21L1420.12 1263.12ZM0 3V590.646H6V3H0ZM3 593.646H740.521V587.646H3V593.646ZM737.521 590.646V1261H743.521V590.646H737.521ZM740.521 1264H1418V1258H740.521V1264Z" fill="#11271F"/>
</svg>
