<svg width="240" height="367" viewBox="0 0 240 367" fill="none" xmlns="http://www.w3.org/2000/svg">
<path d="M98.6757 141.324C89.6464 151.722 81.7205 163.292 76.9364 176.206C59.9761 221.983 87.6889 275.319 129.421 300.644C171.153 325.969 222.808 328.667 271.413 324.115C272.28 307.561 273.142 290.992 274.009 274.438C248.738 278.05 222.872 277.409 197.818 272.559C180.643 269.234 163.439 263.718 149.746 252.831C136.053 241.944 126.356 224.888 127.853 207.455C129.743 185.418 148.221 168.45 167.376 157.404C190.351 144.162 216.21 135.978 242.616 133.592C243.212 133.537 239.947 80.7275 239.303 76.8982C218.172 71.1683 186.445 84.22 166.992 92.2973C140.885 103.144 117.217 119.957 98.6757 141.324Z" fill="#11271F"/>
<path d="M104.489 44.9444C106.948 48.27 110.03 51.1144 112.842 54.1474C115.706 57.2221 118.422 60.4273 121.077 63.6737C126.349 70.1208 131.1 77.0291 135.342 84.1934C143.892 98.6084 150.082 114.252 153.83 130.577C154.943 135.41 162.331 133.303 161.232 128.49C155.181 102.167 142.503 77.5112 124.724 57.1847C122.228 54.3285 119.542 51.6303 116.804 49.0033C114.019 46.325 111.092 43.5419 107.712 41.6356C105.766 40.533 103.002 42.9553 104.464 44.9432L104.489 44.9444Z" fill="#F4B53D"/>
<path d="M121.037 23.1403C126.395 28.4035 132.237 33.1839 137.548 38.5087C142.897 43.8549 147.996 49.4005 152.709 55.3205C162.169 67.1917 170.179 80.2364 176.425 94.0768C179.967 101.93 182.384 110.044 185.273 118.121C186.9 122.664 193.534 120.826 192.495 116.085C190.83 108.492 187.649 100.98 184.558 93.8702C181.444 86.7099 177.854 79.7482 173.84 73.0511C165.711 59.5001 155.819 47.0098 144.436 36.0594C138.172 30.0369 131.186 24.0002 123.498 19.8692C121.468 18.7823 119.353 21.4806 121.037 23.1403Z" fill="#F4B53D"/>
<path d="M140.632 11.6473C151.789 20.7122 162.85 29.6351 172.754 40.1086C182.512 50.4379 191.117 61.7927 198.356 74.016C202.48 80.9882 206.174 88.2346 209.333 95.6964C210.136 97.6042 211.894 98.9532 214.058 98.3432C215.848 97.8384 217.518 95.5315 216.705 93.6183C205.005 66.117 187.171 41.4245 164.018 22.4356C157.52 17.0992 150.615 12.1755 143.092 8.40069C141.14 7.42055 138.76 10.1211 140.647 11.6431L140.632 11.6473Z" fill="#F4B53D"/>
</svg>
